<svg height="512pt" viewBox="-27 0 512 512.00099" width="512pt" xmlns="http://www.w3.org/2000/svg"><path d="m440.734375 295.363281c-30.535156-45.3125-88.410156-6.25-88.410156-6.25-19.082031 12.691407-44.605469-.988281-44.605469-23.902343 0-9.613282 4.808594-18.585938 12.8125-23.90625l56.550781-37.609376c24.90625-16.566406 31.390625-50 15.105469-75.09375-28.773438-44.34375-75.089844-15.105468-75.089844-15.105468-14.660156 9.75-34.273437-.761719-34.273437-18.367188v-32.574218c0-29.703126-23.539063-54.550782-53.238281-55.046876-30.335938-.507812-55.085938 23.933594-55.085938 54.152344v33.46875c0 17.605469-19.613281 28.117188-34.273438 18.367188 0 0-45.996093-28.882813-75.089843 15.105468-16.503907 24.949219-9.800781 58.527344 15.105469 75.09375l56.550781 37.609376c8.003906 5.320312 12.8125 14.292968 12.8125 23.90625 0 22.914062-25.527344 36.59375-44.605469 23.902343 0 0-57.675781-39.933593-88.410156 6.25-16.574219 24.90625-9.800782 58.53125 15.105468 75.09375l100.296876 66.703125c58.5625 38.945313 134.777343 38.945313 193.34375 0l100.292968-66.703125c24.90625-16.5625 31.824219-50.285156 15.105469-75.09375zm0 0" fill="#97af8c"/><path d="m158.507812 187.84375c-39.347656-23.542969-40.765624-59.191406-36.695312-81.789062-16.03125-4.003907-39.351562-3.648438-56.679688 22.546874-16.5 24.949219-9.800781 58.527344 15.109376 75.09375l56.550781 37.609376c8 5.320312 12.8125 14.292968 12.8125 23.90625 0 22.914062-25.527344 36.59375-44.609375 23.902343 0 0-57.671875-39.933593-88.40625 6.25-16.574219 24.90625-9.800782 58.53125 15.105468 75.09375l100.292969 66.703125c58.566407 38.949219 134.78125 38.949219 193.347657 0l24.875-16.542968c-43.769532-70.332032-126.761719-193.910157-191.703126-232.773438zm0 0" fill="#8c9e82"/><path d="m322.664062 170.292969c-5.015624-9.195313-16.644531-12.617188-25.84375-7.601563l-68.128906 37.164063-68.128906-37.164063c-9.195312-5.015625-20.824219-1.59375-25.839844 7.601563-5.015625 9.195312-1.597656 20.824219 7.597656 25.839843l86.371094 47.113282 86.371094-47.113282c9.199219-5.015624 12.617188-16.644531 7.601562-25.839843zm0 0" fill="#b2785b"/><path d="m326.839844 343.871094c-5.128906-9.136719-16.796875-12.410156-25.933594-7.28125l-72.214844 40.554687-72.214844-40.554687c-9.132812-5.128906-20.804687-1.855469-25.933593 7.277344-5.128907 9.136718-1.851563 20.804687 7.28125 25.933593l90.867187 51.03125 90.871094-51.03125c9.132812-5.128906 12.410156-16.796875 7.277344-25.929687zm0 0" fill="#b2785b"/><path d="m228.691406 504.5c-10.472656 0-19.042968-8.570312-19.042968-19.046875v-335.710937c0-10.476563 8.570312-19.046876 19.042968-19.046876 10.476563 0 19.046875 8.570313 19.046875 19.046876v335.710937c0 10.476563-8.570312 19.046875-19.046875 19.046875zm0 0" fill="#c68d6d"/><path d="m446.953125 291.171875c-14.355469-21.304687-36.320313-29.34375-63.515625-23.242187-19.445312 4.359374-34.667969 14.535156-35.265625 14.9375-6.621094 4.402343-14.753906 4.789062-21.761719 1.035156-7.007812-3.753906-11.191406-10.742188-11.191406-18.691406 0-7.117188 3.539062-13.71875 9.464844-17.660157l31.722656-21.097656c3.449219-2.292969 4.386719-6.949219 2.09375-10.398437-2.296875-3.449219-6.949219-4.386719-10.398438-2.09375l-31.722656 21.097656c-10.117187 6.730468-16.160156 18-16.160156 30.152344 0 13.570312 7.144531 25.5 19.105469 31.914062 11.964843 6.410156 25.855469 5.75 37.1875-1.789062.136719-.089844 13.8125-9.179688 30.566406-12.851563 20.773437-4.550781 36.734375 1.191406 47.4375 17.070313 6.902344 10.242187 9.375 22.585937 6.960937 34.765624-2.4375 12.316407-9.542968 22.933594-20 29.890626l-100.296874 66.703124c-19.800782 13.167969-42.484376 22.023438-65.941407 25.816407v-42.203125l67.996094-38.1875c12.761719-7.167969 17.3125-23.378906 10.148437-36.144532-3.464843-6.164062-15.121093-19.988281-36.148437-10.144531l-41.996094 23.582031v-116.324218l63.417969-34.59375c12.847656-7.007813 17.601562-23.164063 10.589844-36.015625-7.007813-12.847657-23.164063-17.601563-36.015625-10.59375l-37.992188 20.726562v-27.09375c0-14.636719-11.910156-26.546875-26.546875-26.546875-14.636718 0-26.542968 11.910156-26.542968 26.546875v27.09375l-37.992188-20.726562c-12.851562-7.007813-29.007812-2.253907-36.019531 10.59375-7.007813 12.851562-2.257813 29.007812 10.59375 36.015625l63.414062 34.59375v116.324218l-41.996093-23.582031c-21.023438-8.617187-32.683594 3.980469-36.144532 10.144531-7.167968 12.765626-2.613281 28.976563 10.148438 36.144532l43.046875 24.175781c5.390625 1.828125 8.835937-.414063 10.210937-2.863281 2.03125-3.613282.746094-8.1875-2.867187-10.214844l-43.042969-24.175781c-5.550781-3.117188-7.53125-10.167969-4.414062-15.71875 1.496093-2.671875 5.792968-8.738281 15.71875-4.414063l49.34375 27.710938v85.898437c-23.496094-3.792969-46.164063-12.628906-66.003907-25.824219l-100.296875-66.703124c-10.378906-6.902344-17.453125-17.433594-19.910156-29.652344-2.460938-12.222656-.011719-24.664063 6.894531-35.039063 6.773438-10.179687 15.210938-16.121093 25.796875-18.160156 24.613282-4.746094 51.832032 13.738281 52.097656 13.921875.039063.023438.078126.050781.117188.078125 11.300781 7.515625 25.191406 8.175781 37.152344 1.765625 11.964844-6.410156 19.105468-18.34375 19.105468-31.914062 0-12.152344-6.039062-23.421876-16.15625-30.152344l-56.550781-37.605469c-21.371093-14.214844-27.203125-43.242187-13.003906-64.710937 10.289063-15.554688 24.039063-22.554688 40.894531-20.785157 12.886719 1.347657 23.136719 7.398438 23.90625 7.863281 9.207032 6.0625 20.488282 6.574219 30.210938 1.363282 9.765625-5.234375 15.597656-14.972656 15.597656-26.054688v-33.46875c0-12.609375 4.953125-24.425781 13.945312-33.269531 8.988282-8.84375 20.898438-13.605469 33.515626-13.386719 25.289062.425782 45.863281 21.753906 45.863281 47.546875v32.578125c0 11.078125 5.832031 20.816406 15.597656 26.050782 9.722656 5.214843 21.007813 4.703124 30.210937-1.363282.820313-.496094 11.132813-6.613281 24.039063-8 16.871094-1.816406 30.566406 5.210938 40.726563 20.867188 13.460937 20.742187 8.769531 48.480468-10.679688 63.144531-3.304688 2.492187-3.964844 7.195313-1.472656 10.503906 2.496094 3.304688 7.199218 3.964844 10.503906 1.472657 25.707031-19.382813 31.957031-55.96875 14.230469-83.285157-16.960938-26.136719-39.542969-29.410156-55.496094-27.550781-16.679687 1.941406-29.359375 9.847656-29.890625 10.183594-.050781.03125-.101562.066406-.152344.097656-4.542968 3.023438-10.125 3.289062-14.9375.710938-4.808594-2.578126-7.679687-7.375-7.679687-12.832032v-32.574218c0-33.929688-27.191407-61.988282-60.613281-62.5468755-16.640626-.2617185-32.402344 6.0039065-44.285157 17.6874995-11.882812 11.6875-18.425781 27.300782-18.425781 43.964844v33.46875c0 5.457032-2.875 10.253906-7.683594 12.832032-4.808594 2.578124-10.394531 2.3125-14.9375-.710938-.054687-.035156-.109375-.070312-.164062-.105469-.527344-.332031-13.136719-8.148437-29.773438-10.042969-15.894531-1.804687-38.4375 1.46875-55.5625 27.363282-18.753906 28.347656-11.03125 66.691406 17.207032 85.476562l56.554687 37.609375c5.925781 3.941407 9.460937 10.542969 9.460937 17.660157 0 7.949218-4.183593 14.9375-11.191406 18.691406-6.988281 3.746094-15.101562 3.371094-21.714844-1-2.078124-1.429688-32.90625-22.109375-63.328124-16.289063-14.566407 2.785157-26.519532 11.0625-35.523438 24.59375-9.125 13.714844-12.363281 30.160157-9.113281 46.3125 3.25 16.144531 12.59375 30.0625 26.308593 39.183594l100.292969 66.703125c22.292969 14.824219 47.855469 24.605469 74.3125 28.507812v13.539063c0 14.640625 11.910157 26.546875 26.546875 26.546875 14.636719 0 26.546875-11.90625 26.546875-26.546875v-13.542969c26.40625-3.902344 51.996094-13.707031 74.246094-28.503906l100.292969-66.703125c13.8125-9.183594 23.191406-23.199219 26.414062-39.46875 3.195313-16.125-.085937-32.484375-9.238281-46.0625zm-142.371094 51.957031c7.972657-4.210937 14.21875 1.742188 15.71875 4.414063 3.117188 5.550781 1.136719 12.601562-4.414062 15.71875l-60.648438 34.0625v-26.484375zm-4.167969-173.851562c5.589844-3.050782 12.617188-.984375 15.664063 4.605468 3.050781 5.589844.984375 12.617188-4.605469 15.667969l-56.234375 30.671875v-26.304687zm-154.5 20.273437c-5.589843-3.050781-7.65625-10.078125-4.609374-15.667969 3.050781-5.585937 10.078124-7.652343 15.667968-4.605468l45.171875 24.640625v26.304687zm94.324219 295.902344c0 6.367187-5.179687 11.546875-11.546875 11.546875-6.363281 0-11.542968-5.179688-11.542968-11.546875v-20.0625c0-.007813 0-.015625 0-.019531v-315.632813c0-6.363281 5.179687-11.546875 11.542968-11.546875 6.367188 0 11.546875 5.183594 11.546875 11.546875zm0 0"/></svg>